<svg id="Capa_1" data-name="Capa 1" xmlns="http://www.w3.org/2000/svg" viewBox="0 0 670.2 766.52"><defs><style>.cls-1,.cls-7{fill:#6048f0;}.cls-1{opacity:0.03;}.cls-2,.cls-4{stroke:#3a3a3a;}.cls-2{stroke-miterlimit:10;}.cls-3{fill:#fff;}.cls-10,.cls-4{fill:none;stroke-linecap:round;stroke-linejoin:round;stroke-width:3.19px;}.cls-5{fill:#b2c3fb;}.cls-6{fill:#d8dfff;}.cls-8{fill:#fb5d64;}.cls-9{fill:#3a3a3a;}.cls-10{stroke:#d8dfff;}</style></defs><title>drawkit-grape-pack-illustration-18sv2</title><path class="cls-1" d="M652.23,103.82c61.07,38.06,113.67,99.47,125.68,168,12.17,68.51-16.24,144.31-53.79,219.56-37.55,75.42-84.23,150.72-159.84,202.45-75.61,51.92-180.15,80.51-260.16,48.37-79.83-32-135.15-124.83-165.43-214.14-30.1-89.31-35-175.07-19.62-256.79,15.23-81.51,50.58-158.81,109.44-197.21S369.76,36.16,445.7,43.78C521.48,51.22,591.17,65.93,652.23,103.82Z" transform="translate(-110.57 -39.69)"/><path class="cls-2" d="M687.85,805.71c-5-8.8-72.38-154.67-72.38-166.15,0-3.93,21.35-123.74,30.8-125.13s32.14-10.92,39.42-13.54c.84,9.71,51,304.82,51,304.82Z" transform="translate(-110.57 -39.69)"/><path d="M532,805.71c0-19.12.68-302.2.68-302.2s121.61,4.64,131.86,5.13c0,58.93-84.86,251.28-84.86,297.07H532Z" transform="translate(-110.57 -39.69)"/><path class="cls-3" d="M601,262.22c-3.63-5.72-20.53-34-22-38.94s-11.85-91-11.85-91l-29.19,1.48s-3.17,92,0,99,26.44,52,26.44,52l18,11.43Z" transform="translate(-110.57 -39.69)"/><path class="cls-4" d="M533,214.87c.19,7.44.57,12.76,1.25,14.24,3.17,7,26.44,52,26.44,52l18,11.43,18.66-34c-3.63-5.72-20.53-34-22-38.94s-11.85-91-11.85-91l-29.19,1.48s-1.19,34.59-1.38,63" transform="translate(-110.57 -39.69)"/><path class="cls-5" d="M733.25,51.67l21.66-2.1a8.4,8.4,0,0,1,9.18,7.55l4.9,50.34a8.4,8.4,0,0,1-7.55,9.18l-21.66,2.11h0l-6.53-67.08Z" transform="translate(-110.57 -39.69)"/><polygon class="cls-6" points="219.17 51.26 164.35 90.45 225.71 118.33 225.71 118.33 629.21 79.03 622.67 11.95 219.17 51.26"/><path class="cls-7" d="M626.56,254.79c77.49,0,59.71,214.85,59.13,246.1C673.58,515.54,548,512,532,502.06,528,467.89,542.7,254.79,626.56,254.79Z" transform="translate(-110.57 -39.69)"/><path class="cls-4" d="M678.4,335.18c10.05,63.91,3.93,143.88,3.59,162-6.87,8.31-50.22,10.77-89.4,9.54" transform="translate(-110.57 -39.69)"/><path class="cls-4" d="M530.58,434.51c7.73-74.59,32.35-183.42,92.28-183.42,21.07,0,35.1,15.89,44.34,39.65" transform="translate(-110.57 -39.69)"/><path class="cls-4" d="M562.16,504.92c-16.56-1.52-29.45-3.79-33.89-6.56-.58-4.9-.74-13.47-.43-24.57" transform="translate(-110.57 -39.69)"/><path class="cls-4" d="M637.1,599.35c-11.56,33.4-23.74,64-27.34,74.65C602.82,694.53,576,788.13,576,802" transform="translate(-110.57 -39.69)"/><path class="cls-4" d="M660.81,504.22c0,13.79-4.76,34.61-11.41,57.08" transform="translate(-110.57 -39.69)"/><path class="cls-4" d="M528.27,740.94V802" transform="translate(-110.57 -39.69)"/><path class="cls-4" d="M528.27,498.36v196.8" transform="translate(-110.57 -39.69)"/><path class="cls-4" d="M682,497.19c0,17.72,44.4,277.72,50.93,304.82" transform="translate(-110.57 -39.69)"/><path class="cls-4" d="M656,743.47C639.52,707,621.5,665.21,617.5,653.11" transform="translate(-110.57 -39.69)"/><path class="cls-4" d="M684.15,802c-2.3-3.49-7.51-14-14.06-28" transform="translate(-110.57 -39.69)"/><circle class="cls-5" cx="210.79" cy="352.93" r="12.98" transform="translate(-266.77 498.48) rotate(-85.93)"/><circle class="cls-8" cx="350.11" cy="334.96" r="12.26"/><circle class="cls-3" cx="239.33" cy="609.91" r="12.26"/><rect class="cls-3" x="232.35" y="156.26" width="86.27" height="184.12" transform="translate(-205.86 199.5) rotate(-40.62)"/><path class="cls-3" d="M653.41,228.17c-1,7.54-3,34.6-2.16,44-4.21,4.05-24.3,4.86-32.56-2.43,1.62-7.78,5.35-14.58,3.24-30.78S653.41,228.17,653.41,228.17Z" transform="translate(-110.57 -39.69)"/><path class="cls-4" d="M617.46,260.08c1.54-5.75,3-12.52,1.48-24.08-2.11-16.21,31.48-10.79,31.48-10.79-1,7.54-3,34.6-2.16,44-3.27,3.14-16.14,4.34-25.59,1.29" transform="translate(-110.57 -39.69)"/><ellipse class="cls-3" cx="517.08" cy="153.37" rx="37.14" ry="48.72"/><path class="cls-4" d="M588.42,200.59a63.64,63.64,0,0,1-.87-10.49c0-26.91,16.63-48.73,37.14-48.73s37.15,21.82,37.15,48.73a59.83,59.83,0,0,1-6.32,27.2" transform="translate(-110.57 -39.69)"/><path class="cls-4" d="M637,236.09a29.19,29.19,0,0,1-12.3,2.73c-13.5,0-25.32-9.45-31.82-23.58" transform="translate(-110.57 -39.69)"/><ellipse class="cls-9" cx="497.6" cy="153.62" rx="1.59" ry="4.29"/><path class="cls-4" d="M601.22,194.36c0,3.47-3.12,9.32-6.15,12.49" transform="translate(-110.57 -39.69)"/><path class="cls-4" d="M604.54,223.59c1.62,0,7.34-2.05,11.43-8" transform="translate(-110.57 -39.69)"/><path class="cls-7" d="M644.58,205.74c1.6,2.18,3.22,17.9,6.66,18.93s18-26.65,18-37.75c0-20.07-11.84-65-29.25-65-6.31,0-6.88,9.75-6.88,13.53-2.07-5.18-11.59-16.28-23.63-16.28-20.42,0-20.09,19.24-16.52,34.42-3.55-2-3.7-2.53-8-2.53-3.89,0-6,5.1-6,10.44,0,12.84,6.9,17.43,12.28,19.61s20.86,3.22,31.08,3C623.58,187,633,206,644.58,205.74Z" transform="translate(-110.57 -39.69)"/><path class="cls-4" d="M596.6,179.29a165.37,165.37,0,0,0,22,1.08c1.26,2.86,10.67,21.9,22.26,21.67,1.6,2.18,3.22,17.9,6.66,18.93.89.27,2.56-1.43,4.52-4.27" transform="translate(-110.57 -39.69)"/><path class="cls-4" d="M592.18,120.36c-6.3,6.66-5.38,19-2.92,29.49-3.55-2-3.7-2.53-8-2.53-3.89,0-6,5.1-6,10.44,0,9.1,3.47,14.06,7.4,17" transform="translate(-110.57 -39.69)"/><path class="cls-4" d="M646.18,123.18c-3-3.13-6.35-5-9.89-5-6.31,0-6.88,9.74-6.88,13.53-2.07-5.18-11.59-16.28-23.63-16.28H604.2" transform="translate(-110.57 -39.69)"/><path class="cls-4" d="M660.36,201.24c3-6.73,5.18-13.64,5.18-18,0-12.19-4.36-33.57-11.7-48.47" transform="translate(-110.57 -39.69)"/><circle class="cls-3" cx="528.21" cy="159.62" r="11.71"/><path class="cls-4" d="M630,186.22a11.72,11.72,0,1,1,5.86,21.87" transform="translate(-110.57 -39.69)"/><path class="cls-3" d="M604.92,289.75c-8.14-3.7-66.7-24.95-71.79-30.05S490,181.54,488.82,178.08c1.09-1.2,3.08-6.88,3-13.32s-4.25-8.21-4.57-28.32c-.11-6.89-10.21.38-10.09,14.66-12-.92-27.2-30.17-36.45-17.29C472.49,198.06,507.57,297,510.53,300s79,41.36,80.73,40.31S608.42,294,604.92,289.75Z" transform="translate(-110.57 -39.69)"/><path class="cls-7" d="M678,349.68c6-23.44-30-61.15-68.89-64.84-6.41,3.46-25.31,46.67-23.08,60.49C600.67,361,668.5,386.84,678,349.68Z" transform="translate(-110.57 -39.69)"/><path class="cls-4" d="M602.85,283.67c-7.8,10.17-22.52,45.68-20.53,58,2.72,2.91,7.29,6.17,13,9.32" transform="translate(-110.57 -39.69)"/><path class="cls-4" d="M605.4,281.14a9.44,9.44,0,0,0-2.55,2.53" transform="translate(-110.57 -39.69)"/><path class="cls-4" d="M624,362.23c22,5.57,45,4.25,50.26-16.25,4.73-18.5-16.7-45.88-45-58.46" transform="translate(-110.57 -39.69)"/><path class="cls-4" d="M442.11,139.24q-2.53-4.65-5.18-9.14c-2.44-3.5,8.56-10.23,26.09,12.8" transform="translate(-110.57 -39.69)"/><path class="cls-4" d="M522,305c-7.51-4.12-13.24-7.4-15.15-8.74-6.6-4.68-26.13-81.1-58.4-145" transform="translate(-110.57 -39.69)"/><path class="cls-4" d="M582.26,336.56c-2.22-.85-22-11.1-40.9-21.13" transform="translate(-110.57 -39.69)"/><path class="cls-4" d="M496.08,196.09c-6-11.6-10.55-20.56-11-21.71,1.09-1.2,3.08-6.88,3-13.32s-4.25-8.21-4.57-28.32c-.11-6.89-10.22.38-10.09,14.66" transform="translate(-110.57 -39.69)"/><path class="cls-4" d="M601.22,286.05c-8.14-3.71-66.7-24.95-71.79-30.05-2.1-2.1-9.78-15.75-18.17-31.3" transform="translate(-110.57 -39.69)"/><polygon class="cls-10" points="330.09 387.83 170.21 428.94 285.75 546.85 330.09 387.83"/></svg>